<svg xmlns="http://www.w3.org/2000/svg" viewBox="0 0 1200 750" width="1200" height="750" role="img" aria-labelledby="t d">
<title id="t">Fachada con aberturas de aluminio San Jose</title><desc id="d">Plano de una fachada con ventanal corredizo, puerta de entrada y panos fijos.</desc>
<defs>
  <linearGradient id="glass" x1="0" y1="0" x2="1" y2="1">
    <stop offset="0" stop-color="#F4F8FB"/><stop offset="0.55" stop-color="#DCE6EE"/><stop offset="1" stop-color="#BFD0DE"/>
  </linearGradient>
  <pattern id="grid" width="40" height="40" patternUnits="userSpaceOnUse">
    <path d="M40 0H0V40" fill="none" stroke="#C7CDD4" stroke-width="1" opacity=".45"/>
  </pattern>
</defs>
<rect width="1200" height="750" fill="#EEF1F4"/>
<rect width="1200" height="750" fill="url(#grid)"/><rect x="60" y="60" width="1080" height="630" fill="none" stroke="#C7CDD4" stroke-width="2"/><rect x="120" y="170" width="560" height="400" fill="url(#glass)" stroke="#0B1A2E" stroke-width="12"/><rect x="132" y="182" width="536" height="376" fill="none" stroke="#1A365D" stroke-width="2" opacity=".55"/><rect x="400" y="182" width="12" height="376" fill="#0B1A2E"/><path d="M200 250 L330 250 M200 300 L330 300" stroke="#FFFFFF" stroke-width="6" opacity=".7"/><rect x="740" y="120" width="220" height="450" fill="url(#glass)" stroke="#0B1A2E" stroke-width="10"/><rect x="750" y="130" width="200" height="430" fill="none" stroke="#1A365D" stroke-width="2" opacity=".55"/><circle cx="930" cy="345" r="9" fill="#0E7C9B"/><rect x="770" y="160" width="160" height="120" fill="none" stroke="#1A365D" stroke-width="3" opacity=".5"/><rect x="1000" y="120" width="120" height="260" fill="url(#glass)" stroke="#0B1A2E" stroke-width="10"/><rect x="1010" y="130" width="100" height="240" fill="none" stroke="#1A365D" stroke-width="2" opacity=".55"/><g stroke="#0E7C9B" stroke-width="2" fill="none"><path d="M120 632V648M680 632V648M120 640H680"/></g><text x="400.0" y="624" text-anchor="middle" font-family="Inter,Arial,sans-serif" font-size="22" font-weight="600" fill="#0E7C9B">3,60 m</text><g stroke="#0E7C9B" stroke-width="2" fill="none"><path d="M740 632V648M960 632V648M740 640H960"/></g><text x="850.0" y="624" text-anchor="middle" font-family="Inter,Arial,sans-serif" font-size="22" font-weight="600" fill="#0E7C9B">1,20 m</text><text x="120" y="130" font-family="Inter,Arial,sans-serif" font-size="24" font-weight="700" letter-spacing="3" fill="#1A365D" opacity=".8">LINEA MODENA</text></svg>